<svg width="129" height="82" viewBox="0 0 129 82" fill="none" xmlns="http://www.w3.org/2000/svg">
<g clip-path="url(#clip0_5005_86)">
<path d="M123.113 50.6807C125.207 53.0294 127.239 55.2723 129.27 57.5364C129.228 57.6422 129.207 57.7268 129.164 57.7903C126.223 62.4877 122.224 65.8309 116.849 67.4179C112.829 68.6028 108.83 68.3277 104.873 67.037C100.26 65.5347 96.3882 62.8686 93.0661 59.3984C91.4157 57.6633 89.8499 55.8648 88.2418 54.0874C88.0513 53.8758 87.8609 53.6642 87.607 53.3891C87.5012 53.6642 87.3954 53.8758 87.3319 54.0874C84.5177 61.5567 79.3124 66.508 71.568 68.4335C63.5486 70.4225 56.5024 68.4124 50.7259 62.3819C49.541 61.1547 48.5041 59.7793 47.425 58.4462C42.2409 51.8656 37.078 45.2638 31.8727 38.6832C29.0797 35.1707 25.3556 33.4991 20.8698 33.7107C15.1567 33.9858 10.1842 38.26 8.93579 43.825C7.30651 51.0616 12.0674 58.2135 19.3674 59.5042C23.2185 60.1813 26.6675 59.2503 29.7568 56.8804C29.9261 56.7535 30.0953 56.6054 30.2858 56.4784C30.2858 56.4784 30.3281 56.4784 30.4127 56.4572C32.169 58.5944 33.9464 60.7738 35.7661 62.9744C35.5545 63.1648 35.3852 63.3129 35.1948 63.4611C31.9785 66.0425 28.3391 67.5448 24.2553 68.0527C14.2468 69.2799 4.70388 63.4187 1.33952 53.9393C-2.99819 41.709 4.40765 28.3785 17.1034 25.6278C23.4512 24.2524 29.3124 25.5643 34.5388 29.4153C36.549 30.8965 38.3899 32.5893 39.998 34.536C44.907 40.4606 49.8583 46.3641 54.8308 52.2465C55.91 53.5161 57.0103 54.7856 58.2799 55.8648C61.7923 58.8906 65.855 59.6523 70.2138 58.1288C74.5727 56.6054 77.26 53.4526 78.1275 48.9033C79.4182 42.1534 74.9112 35.7209 68.1402 34.6841C63.4005 33.9646 59.5283 35.5728 56.5024 39.2969C56.3543 39.4661 56.2274 39.6354 56.1004 39.8258C56.1004 39.8258 56.0581 39.847 55.9523 39.9316C55.8888 39.8258 55.8042 39.6777 55.7195 39.5719C52.334 35.5305 48.9485 31.5101 45.5418 27.4898C45.2879 27.1936 45.1821 26.8762 45.1821 26.4742C45.1821 19.957 45.1821 13.4399 45.1821 6.92275V6.33028C48.1444 4.25665 51.0856 2.22533 54.1326 0.109375V27.7014C54.3865 27.5745 54.5558 27.511 54.725 27.4052C57.6451 25.6701 60.7767 24.6121 64.1622 24.3582C71.5257 23.8081 77.7889 26.2414 82.8249 31.6794C83.5232 32.4412 84.158 33.2452 84.7928 34.0493C88.7496 39.1064 92.7064 44.1847 96.6421 49.263C97.7424 50.6807 98.8427 52.0984 100.006 53.4949C101.382 55.1665 102.948 56.6265 104.831 57.7268C112.427 62.1068 120.341 57.8749 122.816 51.4636C122.901 51.252 122.986 51.0192 123.134 50.7018L123.113 50.6807Z" fill="white"/>
<path d="M126.663 32.2675C124.611 34.2354 122.601 36.182 120.548 38.171C117.692 35.0606 114.201 33.4736 109.99 33.6852C105.8 33.8968 102.478 35.8435 99.9813 39.2078C99.5581 38.9539 95.1992 33.7275 94.4375 32.5849C102.372 23.042 117.882 22.4072 126.663 32.2887V32.2675Z" fill="white"/>
<path d="M34.3644 78.885C35.0838 79.2447 35.6974 79.6467 36.5015 79.6256C36.1629 79.9218 35.7609 79.9218 35.4012 79.7948C34.851 79.6256 34.3432 79.3928 33.8142 79.1812C33.4757 79.0331 33.1583 78.8427 32.8197 78.6734C32.5658 79.3716 32.6293 79.4986 33.3699 79.7314C32.7562 79.8372 32.1638 79.8372 31.529 79.689C31.6771 79.6467 31.804 79.5832 31.9945 79.5198C31.9945 78.5887 31.9945 77.6577 31.9945 76.7267C31.9945 76.4939 31.9945 76.24 31.9945 76.0073C31.9945 75.5982 31.8323 75.2667 31.5078 75.0128C31.9522 75.0128 32.333 74.8647 32.7351 75.1186C32.8197 75.1821 33.0313 75.0974 33.1583 75.0339C33.7719 74.8012 34.4067 74.8012 35.0203 75.0339C35.8455 75.3513 36.3322 76.0919 36.311 76.9171C36.2899 77.7635 35.782 78.3983 34.9145 78.7157C34.7664 78.7792 34.5971 78.8215 34.3644 78.9061V78.885ZM32.6716 78.1021C32.989 78.2502 33.2429 78.3771 33.4968 78.4829C34.2374 78.7792 34.978 78.5887 35.38 78.0174C35.8244 77.4038 35.7397 76.4728 35.1684 75.8168C34.6183 75.1821 33.793 74.9916 33.0948 75.3302C32.8197 75.4571 32.6504 75.6476 32.6504 75.9861C32.6504 76.6844 32.6504 77.3826 32.6504 78.1021H32.6716Z" fill="white"/>
<path d="M99.1147 76.5166C99.2839 76.5801 99.4109 76.6224 99.5167 76.6647C100.088 76.8975 100.448 77.2995 100.469 77.9554C100.49 78.6325 100.257 79.1615 99.6648 79.5001C99.4744 79.6059 99.2628 79.6905 99.0512 79.7328C98.2048 79.9021 97.3584 79.8175 96.4909 79.6905C96.6178 79.6482 96.766 79.6059 96.9776 79.5212C96.9776 79.3096 96.9776 79.0769 96.9776 78.8441C96.9776 77.8708 96.9776 76.9186 96.9776 75.9453C96.9776 75.5856 97.041 75.1624 96.4062 75.12L96.5332 74.9719C97.3161 74.9719 98.0779 74.9296 98.8608 74.9719C99.4532 75.0143 99.7495 75.5432 99.5167 76.0088C99.4321 76.178 99.2628 76.305 99.0935 76.4954L99.1147 76.5166ZM97.697 79.5212C98.5645 79.7117 99.1993 79.4789 99.559 78.9288C99.8764 78.3998 99.8764 77.6804 99.5167 77.1937C99.1358 76.6647 98.4376 76.4743 97.697 76.6859V79.5212ZM97.697 76.3473C98.0144 76.3473 98.2471 76.3685 98.4799 76.3473C98.7973 76.305 99.0089 76.0722 99.0089 75.776C99.0089 75.4798 98.8184 75.2893 98.5645 75.2047C98.2683 75.0989 97.9721 75.12 97.7181 75.3105V76.3473H97.697Z" fill="white"/>
<path d="M17.2647 75.0133H18.4497C18.1111 75.1615 18.0053 75.3519 18.0265 75.7116C18.0476 76.7907 18.0265 77.8699 18.0265 78.9279C18.0265 79.3087 18.1111 79.5838 18.6824 79.6684C18.0053 79.9012 17.4763 79.7742 16.9262 79.6684C17.0532 79.6261 17.2013 79.5838 17.3917 79.5203V75.6481C17.3917 75.6481 17.3282 75.627 17.2859 75.6058C16.9262 76.4733 16.5665 77.3409 16.1433 78.3354C15.7624 77.3409 15.4239 76.4733 15.1065 75.6058C15.0642 75.6058 15.043 75.6058 15.0007 75.6058C15.0007 75.7328 14.9372 75.8386 14.9372 75.9655C14.9372 76.96 14.9372 77.9334 14.9372 78.9279C14.9372 79.2876 14.9795 79.605 15.4662 79.6473C15.0642 79.88 14.6833 79.7954 14.2812 79.6473C14.4082 79.605 14.5352 79.5626 14.7044 79.5203C14.7044 79.3722 14.7468 79.2029 14.7468 79.0337C14.7468 78.0392 14.7468 77.0658 14.7468 76.0713C14.7468 75.634 14.6057 75.2743 14.3236 74.9922H15.5297C15.8047 75.6905 16.0798 76.3676 16.376 77.1928C16.7358 76.3676 17.0108 75.6905 17.3071 74.9922L17.2647 75.0133Z" fill="white"/>
<path d="M71.1575 74.6562C71.6865 75.2699 72.3002 74.9736 72.8503 74.9736C73.3793 74.9736 73.9718 75.2276 74.4161 74.7197C74.5431 75.3122 74.5431 76.3067 74.3103 76.7934C74.3103 76.5818 74.3103 76.349 74.268 76.1374C74.2257 75.4603 73.9929 75.2487 73.21 75.2487C73.21 75.418 73.1465 75.5873 73.1465 75.7354C73.1465 76.7934 73.1465 77.8302 73.1465 78.8882C73.1465 79.5441 73.1465 79.5441 73.8025 79.6922C73.4216 79.8615 72.7233 79.9038 71.877 79.7345C72.0251 79.6711 72.0674 79.6499 72.1309 79.6287C72.2155 79.6076 72.3002 79.5864 72.406 79.5653V75.2487C71.6442 75.1852 71.3903 75.3968 71.348 76.0739C71.348 76.3067 71.348 76.5394 71.348 76.9203C71.0941 76.4337 71.0517 75.7354 71.1787 74.6562H71.1575Z" fill="white"/>
<path d="M65.1377 79.712C65.1377 80.1775 65.1166 80.6854 65.1377 81.172C65.1377 81.3625 65.3493 81.5317 65.4763 81.701H64.376C64.6511 81.2143 64.5029 80.7277 64.5241 80.2622C64.5453 79.7332 64.5453 79.2042 64.5241 78.6964C64.5029 78.2309 64.6934 77.7019 64.3125 77.2363C64.5453 77.0248 64.7992 76.8132 65.0319 76.6227C65.0954 76.6227 65.1166 76.6227 65.1377 76.6227C65.18 76.6862 65.2012 76.7708 65.2224 76.792C65.6667 76.7285 66.0899 76.6016 66.5131 76.6016C67.4653 76.6016 68.1847 77.3422 68.1847 78.2097C68.1847 79.1196 67.4653 79.839 66.4919 79.8601C66.0687 79.8601 65.6456 79.7755 65.1589 79.712H65.1377ZM66.0476 76.8343C66.0476 76.8343 65.8995 76.8343 65.7937 76.8343C65.2647 76.919 65.1377 77.0671 65.1377 77.6172C65.1377 78.0193 65.1377 78.4001 65.1377 78.8022C65.1377 78.9714 65.18 79.1619 65.2858 79.2888C65.836 79.9871 67.0844 79.8601 67.4653 79.0561C67.9308 78.0193 67.2114 76.8132 66.0476 76.8343Z" fill="white"/>
<path d="M93.5701 79.801H92.6814C92.8718 78.9546 92.7872 78.1082 92.7449 77.283C92.7449 77.0291 92.5544 76.8386 92.2582 76.8386C91.962 76.8386 91.7292 76.9867 91.708 77.283C91.6869 77.9601 91.708 78.6372 91.708 79.3143C91.708 79.4624 91.8773 79.5894 91.9831 79.7586C91.6446 79.8644 91.3272 79.801 90.9675 79.801C91.179 79.272 91.0733 78.7641 91.0944 78.2563C91.0944 77.7273 91.1367 77.1983 91.0944 76.6905C91.0521 76.2038 91.2848 75.6748 90.8828 75.1882C91.1156 74.9766 91.3906 74.7438 91.7292 74.4688V76.7751C91.962 76.7117 92.1524 76.6482 92.3217 76.627C92.9564 76.5424 93.295 76.7963 93.3162 77.4311C93.3162 77.9601 93.3162 78.4891 93.3162 78.9969C93.3162 79.2508 93.4431 79.5047 93.5278 79.801H93.5701Z" fill="white"/>
<path d="M76.0521 79.7954H75.0788C75.2692 79.0125 75.1634 78.2296 75.1634 77.4679C75.1634 75.4577 75.1634 75.4577 74.8672 75.225C75.1211 75.0134 75.3539 74.8018 75.7136 74.4844C75.7136 74.971 75.7136 75.2884 75.7136 75.627C75.7136 75.9655 75.7136 76.3253 75.7136 76.7484C75.9463 76.685 76.1156 76.6426 76.306 76.6003C76.9831 76.4734 77.364 76.7484 77.3852 77.4467C77.3852 77.9757 77.3852 78.5047 77.3852 79.0125C77.3852 79.2664 77.364 79.5415 77.8507 79.6896C77.364 79.8589 77.0255 79.7743 76.6869 79.7954C76.8985 78.9279 76.7715 78.0815 76.7715 77.2563C76.7715 76.9812 76.6023 76.8119 76.306 76.8119C76.0098 76.8119 75.7559 76.96 75.7347 77.2563C75.6924 77.9545 75.7347 78.6528 75.7347 79.3511C75.7347 79.478 75.8828 79.5838 76.031 79.7743L76.0521 79.7954Z" fill="white"/>
<path d="M88.4557 78.4675C87.9268 78.002 87.7786 77.5577 88.0537 77.1133C88.3711 76.5843 88.9424 76.4997 89.9792 76.8171C90.0427 76.669 90.1062 76.5208 90.1697 76.3516C90.212 76.415 90.2966 76.4574 90.2966 76.4997C90.212 76.9652 90.1697 77.4307 90.0427 77.8962C89.9581 78.2136 89.6618 78.3617 89.3656 78.4675C89.154 78.531 88.9424 78.6368 88.7308 78.7214C88.7308 78.7637 88.7308 78.8061 88.7308 78.8695C88.8578 78.9119 89.0059 78.9753 89.1329 79.0177C89.3444 79.0811 89.556 79.1023 89.7676 79.1869C90.7621 79.5678 91.0372 80.7104 90.2966 81.4933C89.6618 82.1704 88.4134 82.2128 87.7152 81.5991C87.1227 81.049 87.1439 80.1391 87.7363 79.5467C88.0467 79.2504 88.2794 78.9119 88.4346 78.531L88.4557 78.4675ZM88.9001 79.3351C88.223 79.3351 87.821 79.5678 87.6728 79.9487C87.5247 80.4142 87.6728 80.8162 87.9902 81.1548C88.4134 81.578 88.9424 81.7684 89.5349 81.6626C90.3601 81.5145 90.6775 80.7739 90.1908 80.0756C89.8311 79.5678 89.3444 79.3351 88.8789 79.3351H88.9001ZM88.3288 77.4095C88.3288 77.8539 88.7943 78.3406 89.1963 78.2982C89.4926 78.2982 89.683 78.0655 89.7042 77.7269C89.7042 77.2191 89.3233 76.7959 88.8789 76.8171C88.5404 76.8171 88.3288 77.0498 88.3288 77.4095Z" fill="white"/>
<path d="M22.0312 75.2038C22.3063 74.971 22.5814 74.7383 22.8776 74.4844V77.5737C22.8776 77.5737 22.9623 77.616 22.9834 77.6372C23.2373 77.3409 23.4913 77.0658 23.8087 76.685H24.4223C23.9779 77.0658 23.5971 77.4044 23.1527 77.8064C23.7663 78.4835 24.3376 79.1183 24.9301 79.7531C24.4858 79.9012 24.1472 79.7954 23.8721 79.4146C23.5971 79.0337 23.2797 78.674 22.92 78.3566C22.8353 78.8432 22.6237 79.3511 23.2162 79.7743C22.8142 79.8589 22.4968 79.8166 22.137 79.8166C22.391 79.2664 22.264 78.7374 22.2852 78.2296C22.3063 77.7006 22.3275 77.1716 22.2852 76.6426C22.2428 76.156 22.5179 75.627 22.0524 75.1826L22.0312 75.2038Z" fill="white"/>
<path d="M53.625 77.1927C53.8366 77.0023 54.1117 76.7907 54.4291 76.5156V76.8965C54.6195 76.8119 54.7888 76.7061 54.9581 76.6426C55.487 76.4733 55.9526 76.7272 55.9949 77.2985C56.0372 77.8698 55.9949 78.4411 56.0372 79.0125C56.0372 79.2664 56.1641 79.4991 56.2488 79.7954H55.3178C55.3601 79.6261 55.4447 79.4568 55.4447 79.3087C55.4447 78.6951 55.4447 78.0814 55.4447 77.4678C55.4447 77.1716 55.3601 76.9388 55.0427 76.8965C54.7465 76.8753 54.4714 77.0446 54.4502 77.2985C54.4079 78.018 54.4291 78.7374 54.4502 79.4568C54.4502 79.5414 54.5983 79.6472 54.7253 79.7954H53.752C53.8366 78.949 54.0059 78.0814 53.6462 77.2139L53.625 77.1927Z" fill="white"/>
<path d="M84.4531 76.7031H85.2784C85.2784 77.2956 85.2784 77.8669 85.2784 78.4171C85.2784 78.6286 85.2784 78.8614 85.2784 79.073C85.2784 79.3058 85.363 79.5597 85.6169 79.5597C85.8073 79.5597 86.0189 79.4539 86.1882 79.3269C86.294 79.2423 86.3575 79.0518 86.3575 78.9249C86.3575 78.3747 86.3786 77.8246 86.3575 77.2956C86.3575 77.1052 86.2094 76.9147 86.1036 76.7031H86.9076C86.9076 77.2321 86.9076 77.7399 86.9288 78.2478C86.9711 78.7344 86.696 79.2846 87.2673 79.7289C86.8653 79.8347 86.5268 79.8559 86.2305 79.5808C86.1036 79.6443 85.9766 79.7289 85.8708 79.7713C85.1937 80.0252 84.7494 79.7289 84.707 79.0095C84.707 78.4594 84.707 77.9092 84.707 77.3802C84.707 77.1475 84.5589 76.9359 84.4743 76.7031H84.4531Z" fill="white"/>
<path d="M100.703 76.7087H101.528C101.528 77.1953 101.528 77.6608 101.528 78.1052C101.528 78.4014 101.528 78.7188 101.528 79.015C101.528 79.2901 101.634 79.544 101.952 79.5864C102.227 79.6287 102.523 79.3748 102.586 79.0362C102.607 78.8246 102.586 78.5919 102.586 78.3803C102.586 78.0417 102.607 77.7243 102.586 77.3858C102.565 77.153 102.459 76.9203 102.396 76.6875H103.179C103.179 77.4916 103.179 78.2533 103.179 79.015C103.179 79.269 103.327 79.5017 103.412 79.7768C103.369 79.7768 103.263 79.8191 103.179 79.798C102.925 79.7556 102.692 79.6075 102.459 79.6287C102.227 79.6287 102.015 79.8191 101.782 79.8403C101.296 79.9037 100.999 79.6287 100.978 79.1208C100.957 78.5495 100.978 77.9782 100.978 77.4069C100.978 77.1319 100.978 76.8779 100.703 76.6875V76.7087Z" fill="white"/>
<path d="M42.6622 77.6159V76.7061C42.7892 76.7272 42.9161 76.7907 43.0219 76.7696C43.2335 76.7273 43.4239 76.6214 43.6355 76.6003C44.355 76.5368 44.7993 76.9388 44.8416 77.6583C44.8416 78.1238 44.8205 78.5893 44.8416 79.0336C44.8416 79.2876 44.9897 79.5203 45.0744 79.7742C45.0955 79.7742 45.0744 79.7954 45.0321 79.7954C44.4819 79.7954 43.9529 79.7319 43.4028 79.8377C42.8315 79.9435 42.4083 79.5203 42.366 78.9913C42.3025 78.3989 42.7045 77.8487 43.297 77.7641C43.5721 77.7217 43.8683 77.7641 44.1857 77.7641C44.1645 77.7852 44.2068 77.7641 44.2068 77.7217C44.2703 77.087 44.1645 76.8542 43.8048 76.7484C43.4239 76.6426 43.1065 76.8542 42.8526 77.3409C42.8103 77.4255 42.7891 77.489 42.7468 77.5736C42.7468 77.5736 42.7045 77.5736 42.6622 77.5736V77.6159ZM44.2703 78.7797C44.2703 78.2084 43.9741 77.8699 43.4874 77.891C43.1065 77.891 42.8103 78.2296 42.8103 78.6316C42.8103 79.1394 43.1912 79.6261 43.6355 79.6261C44.0799 79.6261 44.2703 79.3722 44.2703 78.7797Z" fill="white"/>
<path d="M21.6698 79.7939C21.5429 79.7939 21.4159 79.8362 21.289 79.8151C20.8869 79.8151 20.4849 79.7304 20.0617 79.8362C19.4481 79.9843 18.9614 79.5823 18.8768 79.011C18.7921 78.4609 19.2788 77.8261 19.8924 77.7626C20.1675 77.7414 20.4426 77.7626 20.7388 77.7838C20.8446 77.1278 20.76 76.8739 20.3791 76.7681C19.9348 76.6411 19.5962 76.895 19.1942 77.7626C19.173 77.4875 19.1307 77.3394 19.1307 77.1913C19.1307 77.022 19.1307 76.8316 19.1307 76.6411C19.2577 76.7046 19.3846 76.7893 19.4904 76.7681C19.6174 76.7681 19.7232 76.6623 19.8501 76.62C20.6965 76.3449 21.3313 76.7893 21.3524 77.678C21.3524 78.1011 21.3524 78.5032 21.3524 78.9264C21.3524 79.2226 21.3524 79.5188 21.6698 79.7304V79.7939ZM20.8023 78.7994C20.8023 78.2493 20.5061 77.8895 20.0194 77.8895C19.5962 77.8895 19.3211 78.2069 19.3211 78.6725C19.3211 79.1803 19.6808 79.6035 20.1252 79.6246C20.5695 79.6246 20.8023 79.3707 20.8023 78.7994Z" fill="white"/>
<path d="M51.2045 79.8819C50.0407 79.8819 49.279 79.1201 49.3848 78.0621C49.3848 78.0198 49.3848 77.9775 49.3848 77.9352C49.5541 77.0042 50.612 76.4117 51.6912 76.6444C52.728 76.856 53.2781 77.7236 53.0242 78.6969C52.8338 79.4375 52.1144 79.903 51.2045 79.903V79.8819ZM51.5219 79.6703C52.199 79.6703 52.6434 79.2259 52.6222 78.5488C52.6222 77.8505 52.0297 77.0676 51.3738 76.856C50.6332 76.6233 49.9773 76.983 49.8503 77.6601C49.681 78.6334 50.5486 79.6703 51.5219 79.6491V79.6703Z" fill="white"/>
<path d="M82.1632 79.8862C80.9782 79.8862 80.2165 79.1244 80.3223 78.0664C80.3223 78.0241 80.3223 77.9818 80.3223 77.9395C80.4916 77.0085 81.5495 76.3948 82.6287 76.6276C83.6443 76.8392 84.2156 77.7067 83.9617 78.6801C83.7713 79.4207 83.0519 79.8862 82.142 79.8862H82.1632ZM81.9092 76.818C81.1687 76.818 80.7031 77.2835 80.7666 78.0241C80.8301 78.7647 81.2321 79.2937 81.9092 79.5899C82.6921 79.9285 83.4539 79.5265 83.5597 78.7436C83.6866 77.8337 82.8191 76.8392 81.9092 76.8392V76.818Z" fill="white"/>
<path d="M40.4675 77.531H37.484C37.1878 78.2293 37.4205 78.8852 38.0341 79.3296C38.7324 79.8162 39.4518 79.6681 40.3829 78.8429C40.3405 79.1815 40.1289 79.3296 39.9385 79.4777C39.3249 79.9644 38.3304 80.049 37.6533 79.6681C36.9762 79.2873 36.6799 78.5467 36.9338 77.8061C37.1878 77.0655 37.7802 76.7058 38.5208 76.6212C39.2826 76.5365 39.9385 76.7058 40.4463 77.531H40.4675ZM39.6423 77.3829C38.9652 76.6211 37.9918 76.6635 37.5898 77.3829H39.6423Z" fill="white"/>
<path d="M115.069 78.7987C114.561 80.0683 112.72 80.1741 111.958 79.3911C111.493 78.9256 111.408 78.3543 111.641 77.7407C111.916 77.0001 112.529 76.6827 113.27 76.5981C114.011 76.5346 114.645 76.7039 115.132 77.4868H112.191C111.873 78.2062 112.106 78.8833 112.72 79.3065C113.418 79.7932 114.137 79.6451 115.09 78.7775L115.069 78.7987ZM114.349 77.3598C113.503 76.6404 112.699 76.6616 112.233 77.3598H114.349Z" fill="white"/>
<path d="M28.5895 77.5297H25.5848C25.3309 78.2491 25.5637 78.8839 26.135 79.3071C26.8121 79.7938 27.4257 79.688 28.5895 78.8204C28.1663 79.5399 27.6373 79.8361 26.9602 79.8784C26.2619 79.9207 25.6272 79.7515 25.2463 79.1378C24.8866 78.5877 24.9077 78.0164 25.2463 77.4662C25.9234 76.3448 27.7643 76.3025 28.6107 77.5297H28.5895ZM27.8066 77.3604C27.4469 76.9161 27.0448 76.8103 26.6005 76.8526C26.2408 76.8738 25.8811 76.9584 25.6483 77.4239C26.2831 77.4239 26.8121 77.4239 27.3411 77.4239C27.468 77.4239 27.5738 77.4028 27.8066 77.3816V77.3604Z" fill="white"/>
<path d="M116.42 79.1407C116.314 78.9714 116.293 78.9291 116.272 78.8868C116.187 78.7387 116.145 78.5482 116.018 78.4848C115.933 78.4424 115.7 78.5482 115.658 78.654C115.595 78.781 115.573 79.0561 115.658 79.1407C115.87 79.3523 116.124 79.5427 116.377 79.6485C116.589 79.7332 116.843 79.712 117.076 79.6909C117.499 79.6274 117.711 79.3735 117.732 79.0772C117.753 78.6964 117.499 78.5271 117.224 78.4001C116.949 78.2732 116.653 78.1674 116.377 78.0404C115.954 77.8288 115.806 77.5749 115.891 77.2152C115.975 76.8766 116.314 76.6227 116.737 76.6227C116.928 76.6227 117.118 76.7074 117.309 76.7074C117.393 76.7074 117.457 76.6439 117.584 76.6016V77.5114C117.584 77.5114 117.541 77.5114 117.52 77.5114C117.478 77.3845 117.457 77.2364 117.393 77.1094C117.245 76.8343 116.991 76.6862 116.674 76.792C116.526 76.8343 116.335 76.9824 116.314 77.1094C116.293 77.2152 116.42 77.4479 116.547 77.5114C116.843 77.6807 117.182 77.8077 117.499 77.9346C117.88 78.1039 118.176 78.3578 118.155 78.8233C118.155 79.2888 117.859 79.6062 117.435 79.7543C116.801 79.9871 116.187 79.9871 115.637 79.5427C115.341 79.2888 115.277 78.8868 115.468 78.5906C115.658 78.2943 116.06 78.125 116.377 78.2943C116.504 78.3578 116.674 78.5271 116.695 78.654C116.695 78.781 116.568 78.908 116.441 79.1407H116.42Z" fill="white"/>
<path d="M57.469 78.9903C57.469 78.9903 57.4055 78.8845 57.4055 78.821C57.4055 78.546 57.2574 78.3978 56.9823 78.4825C56.7284 78.5671 56.6649 78.7787 56.7284 79.0115C56.7707 79.1384 56.8765 79.2865 56.9823 79.3712C57.4055 79.7097 57.871 79.8155 58.4 79.6039C58.6539 79.4981 58.8443 79.3289 58.8867 79.0326C58.929 78.7152 58.7385 78.546 58.4846 78.419C58.1672 78.2709 57.8287 78.1439 57.5325 77.9958C57.1093 77.7842 56.9611 77.5303 57.0458 77.1706C57.1093 76.832 57.4478 76.5781 57.8922 76.5781C58.1672 76.5781 58.4212 76.6204 58.7385 76.6416V77.5726C58.6327 77.3187 58.6116 77.1706 58.5269 77.0436C58.3577 76.7474 58.0191 76.6416 57.744 76.7897C57.6171 76.8532 57.469 76.9802 57.469 77.1071C57.469 77.2129 57.5748 77.4033 57.6806 77.4668C57.9768 77.6361 58.3154 77.7631 58.6327 77.89C59.0348 78.0593 59.3522 78.3132 59.3099 78.821C59.2675 79.3289 58.9501 79.6039 58.5058 79.7521C57.9133 79.9425 57.342 79.9213 56.8342 79.5193C56.5168 79.2654 56.4533 78.8845 56.6226 78.5671C56.7919 78.2709 57.1939 78.1016 57.5325 78.2286C57.6806 78.292 57.8287 78.4402 57.871 78.5671C57.8922 78.6729 57.7652 78.8422 57.6806 78.9691L57.5113 78.9268L57.469 78.9903Z" fill="white"/>
<path d="M104.828 79.0983C104.701 78.9502 104.68 78.9502 104.68 78.929C104.638 78.7386 104.68 78.4847 104.405 78.4847C104.278 78.4847 104.045 78.5905 104.045 78.6751C104.024 78.8656 104.045 79.1195 104.13 79.2676C104.469 79.7543 105.378 79.8812 105.865 79.5427C106.267 79.2676 106.267 78.7809 105.865 78.527C105.548 78.3366 105.188 78.2308 104.871 78.0403C104.68 77.9345 104.447 77.7653 104.363 77.5748C104.172 77.194 104.447 76.7284 104.913 76.6438C105.125 76.6015 105.336 76.6438 105.569 76.6438C105.717 76.6438 105.844 76.6438 106.013 76.6438V77.5748C105.907 77.3421 105.865 77.1728 105.781 77.0458C105.611 76.8131 105.378 76.6861 105.103 76.7919C104.955 76.8342 104.765 76.9824 104.744 77.1093C104.723 77.2363 104.85 77.4479 104.976 77.5113C105.273 77.6806 105.611 77.7864 105.929 77.9345C106.31 78.1038 106.606 78.3366 106.585 78.8232C106.585 79.3099 106.288 79.585 105.865 79.7543C105.23 79.987 104.617 79.987 104.067 79.5427C103.77 79.2887 103.707 78.8867 103.897 78.5905C104.088 78.2942 104.49 78.1461 104.807 78.2943C104.934 78.3577 105.082 78.527 105.103 78.654C105.103 78.7598 104.976 78.9079 104.871 79.0983H104.828Z" fill="white"/>
<path d="M120.595 76.6697V77.6642C120.468 77.368 120.425 77.2199 120.341 77.0718C120.193 76.8179 119.939 76.7121 119.664 76.7967C119.516 76.839 119.325 76.9871 119.304 77.1141C119.283 77.2411 119.41 77.4527 119.516 77.5161C119.812 77.6854 120.15 77.7912 120.468 77.9393C120.849 78.1086 121.145 78.3414 121.124 78.828C121.124 79.3147 120.827 79.5898 120.404 79.759C119.769 79.9918 119.156 79.9918 118.606 79.5474C118.331 79.3147 118.246 78.8703 118.415 78.5953C118.585 78.299 119.008 78.1509 119.346 78.299C119.473 78.3625 119.621 78.5318 119.643 78.6587C119.643 78.7857 119.516 78.9127 119.389 79.1454C119.283 78.955 119.219 78.8703 119.219 78.8069C119.219 78.553 119.114 78.426 118.86 78.4683C118.606 78.5106 118.458 78.7645 118.542 79.0185C118.585 79.1243 118.627 79.2089 118.712 79.2935C119.071 79.7167 119.875 79.8437 120.341 79.5686C120.827 79.2935 120.849 78.7645 120.383 78.4683C120.087 78.299 119.748 78.1721 119.431 78.024C118.923 77.7912 118.775 77.5161 118.881 77.1141C118.987 76.7544 119.367 76.5428 119.833 76.564C120.066 76.564 120.32 76.6063 120.574 76.6274L120.595 76.6697Z" fill="white"/>
<path d="M60.6898 76.8354C60.3513 77.5971 60.3936 79.311 60.8379 79.7765H59.8011C59.9281 79.4591 60.0339 75.9678 59.9281 75.4811C59.9069 75.3754 59.78 75.3119 59.6953 75.2061C59.9704 74.9733 60.2455 74.7406 60.5205 74.5078C60.5205 75.1426 60.5205 75.7351 60.5205 76.3487C60.5205 76.518 60.6475 76.6872 60.7321 76.8565L60.6898 76.8354Z" fill="white"/>
<path d="M40.9899 75.1192C41.2015 74.9287 41.4343 74.7171 41.7093 74.4844C41.7093 76.029 41.7093 77.5102 41.7093 79.0125C41.7093 79.2664 41.8363 79.4992 41.9209 79.7743H41.0746C41.2227 79.0125 41.1592 78.2296 41.138 77.4679C41.138 76.7061 41.2861 75.9232 40.9688 75.1192H40.9899Z" fill="white"/>
<path d="M124.999 24.4435C123.899 24.4435 123.031 23.5548 123.031 22.4757C123.031 21.3965 123.941 20.5078 125.02 20.5078C126.099 20.5078 126.967 21.3965 126.967 22.4968C126.967 23.5971 126.099 24.4435 124.999 24.4435ZM125.02 24.2107C125.972 24.2107 126.734 23.449 126.734 22.4968C126.734 21.5658 125.951 20.7829 125.041 20.7617C124.11 20.7617 123.264 21.587 123.285 22.518C123.285 23.449 124.089 24.2107 125.02 24.2107Z" fill="white"/>
<path d="M46.2577 75.3125V76.5609C46.4482 76.6244 46.6174 76.6879 46.8713 76.7725C46.6386 76.8148 46.4905 76.836 46.2789 76.8571C46.2789 77.6189 46.2789 78.3595 46.2789 79.1001C46.2789 79.354 46.3424 79.5867 46.6174 79.6925C46.8925 79.7983 47.1464 79.6925 47.3369 79.5021C47.4215 79.4175 47.4638 79.2693 47.5484 79.0789C47.6331 79.3117 47.6754 79.354 47.6542 79.3963C47.4215 79.7983 46.9983 79.9888 46.4905 79.883C46.0461 79.7983 45.771 79.5021 45.7287 79.0154C45.7076 78.698 45.7287 78.3595 45.7287 78.0209C45.7287 77.6612 45.7922 77.3015 45.6864 76.9841C45.5806 76.6456 45.7922 76.3916 45.7287 76.0742C45.6652 75.7357 45.8345 75.5029 46.2789 75.3125H46.2577Z" fill="white"/>
<path d="M80.1628 76.5156V77.7217C80.057 77.4466 80.0147 77.3409 79.9724 77.2139C79.8666 76.96 79.6762 76.833 79.4011 76.8542C79.126 76.8753 78.8721 77.1081 78.8721 77.4255C78.8721 78.018 78.8509 78.6104 78.8721 79.2029C78.8721 79.3933 79.0202 79.5626 79.126 79.7742H78.2796C78.2796 79.3298 78.3431 78.8855 78.322 78.4623C78.3008 78.0603 78.5335 77.5948 78.0469 77.2562C78.3219 77.0235 78.597 76.7907 78.9144 76.5368C78.9144 76.7061 78.9356 76.7695 78.9567 76.8119C79.3376 76.7272 79.7396 76.6214 80.184 76.5156H80.1628Z" fill="white"/>
<path d="M109.395 76.9824C109.099 77.8077 109.162 79.3523 109.564 79.7967H108.591C108.591 79.3735 108.655 78.9291 108.633 78.5059C108.633 78.1039 108.803 77.6384 108.422 77.2575C108.676 77.0459 108.93 76.8132 109.184 76.6016C109.268 76.7708 109.332 76.8978 109.395 77.0248V76.9824Z" fill="white"/>
<path d="M60.693 76.8526C61.0104 76.4929 61.3913 76.5352 61.751 76.7045C62.1107 76.8526 62.1319 77.2123 62.1107 77.5508C62.1107 78.0587 62.0896 78.5665 62.1107 79.0532C62.1107 79.2859 62.2377 79.5187 62.3223 79.7726H61.4548C61.6241 79.0955 61.5394 78.3761 61.5394 77.6778C61.5394 76.9161 61.4548 76.8314 60.6719 76.8314L60.693 76.8526Z" fill="white"/>
<path d="M109.422 77.0044C109.76 76.6235 110.057 76.5177 110.416 76.6658C110.776 76.814 110.861 77.1102 110.861 77.4488C110.861 77.9566 110.861 78.4433 110.861 78.9511C110.861 79.2473 110.861 79.5647 111.136 79.7975H110.247C110.268 79.4801 110.311 79.205 110.332 78.9088C110.332 78.4856 110.332 78.0835 110.332 77.6603C110.332 76.8986 110.162 76.7928 109.422 76.9832V77.0044Z" fill="white"/>
<path d="M48.9463 79.7999H48.0999C48.1211 79.3556 48.1846 78.9112 48.1423 78.4669C48.1211 78.0648 48.375 77.5993 47.8672 77.2608C48.1634 77.0069 48.4173 76.7953 48.6924 76.5625C48.777 77.6416 48.4808 78.7208 48.9252 79.7999H48.9463Z" fill="white"/>
<path d="M63.8493 79.7999H62.9395C63.1722 79.3556 63.1087 78.89 63.0664 78.4457C63.0453 78.0437 63.3203 77.5782 62.8125 77.2819C63.1087 77.028 63.3626 76.8164 63.6377 76.5625C63.6377 77.4089 63.6377 78.2129 63.6377 79.017C63.6377 79.2709 63.7647 79.5248 63.8493 79.7999Z" fill="white"/>
<path d="M107.726 76.6016C107.726 77.4056 107.726 78.1885 107.726 78.9714C107.726 79.2465 107.874 79.5004 107.959 79.7967H107.028C107.26 79.2042 107.218 77.6384 106.922 77.2152C107.049 77.1306 107.176 77.0248 107.324 76.919C107.451 76.8132 107.599 76.7074 107.726 76.6016Z" fill="white"/>
<path d="M48.8366 75.4782C48.6039 75.584 48.4981 75.6898 48.3711 75.6898C48.2865 75.6898 48.2018 75.5417 48.1172 75.457C48.223 75.3724 48.3076 75.2031 48.4346 75.2031C48.5404 75.2031 48.6462 75.3512 48.8578 75.4994L48.8366 75.4782Z" fill="white"/>
<path d="M63.2686 75.0312C63.4167 75.2005 63.5437 75.2852 63.5648 75.4121C63.5648 75.4756 63.4379 75.666 63.3744 75.666C63.2475 75.666 63.0782 75.5602 63.057 75.4756C63.0359 75.391 63.1628 75.2428 63.2686 75.0524V75.0312Z" fill="white"/>
<path d="M107.407 75.7565C107.301 75.6296 107.153 75.5026 107.174 75.4391C107.216 75.3333 107.343 75.2487 107.449 75.1641C107.534 75.2699 107.661 75.3757 107.682 75.4815C107.682 75.5449 107.534 75.6296 107.407 75.7565Z" fill="white"/>
<path d="M124.68 22.6026C124.383 22.8777 124.828 23.4278 124.172 23.5336V21.333C124.616 21.1637 125.103 21.2272 125.568 21.3118C125.949 21.3753 126.097 21.862 125.907 22.2217C125.822 22.3698 125.717 22.5179 125.611 22.6872C125.738 22.8777 125.907 23.1739 126.097 23.4701C125.717 23.6606 125.547 23.4701 125.378 23.2162C125.209 22.9623 125.082 22.6026 124.68 22.6237V22.6026ZM124.595 22.2005C124.828 22.2005 125.061 22.2217 125.251 22.2005C125.336 22.2005 125.463 22.0313 125.463 21.9255C125.463 21.8408 125.336 21.6927 125.23 21.6716C125.018 21.6292 124.807 21.6716 124.574 21.6716V22.2217L124.595 22.2005Z" fill="white"/>
<path d="M13.185 78.0391H9.46094V78.3565H13.185V78.0391Z" fill="white"/>
<path d="M125.568 78.0391H121.844V78.3565H125.568V78.0391Z" fill="white"/>
</g>
<defs>
<clipPath id="clip0_5005_86">
<rect width="129" height="81.9613" fill="white"/>
</clipPath>
</defs>
</svg>
