<svg width="58" height="58" viewBox="0 0 58 58" fill="none" xmlns="http://www.w3.org/2000/svg">
<path d="M11.3594 18.7383H29.4844C29.8449 18.7383 30.1907 18.5951 30.4456 18.3401C30.7005 18.0852 30.8438 17.7394 30.8438 17.3789C30.8438 17.0184 30.7005 16.6726 30.4456 16.4177C30.1907 16.1628 29.8449 16.0195 29.4844 16.0195H11.3594C10.9988 16.0195 10.6531 16.1628 10.3982 16.4177C10.1432 16.6726 10 17.0184 10 17.3789C10 17.7394 10.1432 18.0852 10.3982 18.3401C10.6531 18.5951 10.9988 18.7383 11.3594 18.7383Z" fill="white"/>
<path d="M48.9688 28.8477C48.9688 28.4871 48.8255 28.1414 48.5706 27.8864C48.3157 27.6315 47.9699 27.4883 47.6094 27.4883H11.3594C10.9988 27.4883 10.6531 27.6315 10.3982 27.8864C10.1432 28.1414 10 28.4871 10 28.8477C10 29.2082 10.1432 29.5539 10.3982 29.8089C10.6531 30.0638 10.9988 30.207 11.3594 30.207H47.6094C47.9699 30.207 48.3157 30.0638 48.5706 29.8089C48.8255 29.5539 48.9688 29.2082 48.9688 28.8477Z" fill="white"/>
<path d="M47.6094 38.9648H29.4844C29.1238 38.9648 28.7781 39.1081 28.5232 39.363C28.2682 39.6179 28.125 39.9637 28.125 40.3242C28.125 40.6847 28.2682 41.0305 28.5232 41.2854C28.7781 41.5404 29.1238 41.6836 29.4844 41.6836H47.6094C47.9699 41.6836 48.3157 41.5404 48.5706 41.2854C48.8255 41.0305 48.9688 40.6847 48.9688 40.3242C48.9688 39.9637 48.8255 39.6179 48.5706 39.363C48.3157 39.1081 47.9699 38.9648 47.6094 38.9648Z" fill="white"/>
</svg>
